G04*
G04 #@! TF.GenerationSoftware,Altium Limited,Altium Designer,24.5.2 (23)*
G04*
G04 Layer_Color=65535*
%FSLAX44Y44*%
%MOMM*%
G71*
G04*
G04 #@! TF.SameCoordinates,CE734AAA-DB41-45B9-A004-A7ED2BCF85BB*
G04*
G04*
G04 #@! TF.FilePolarity,Positive*
G04*
G01*
G75*
%ADD10C,0.1270*%
%ADD11C,0.2540*%
%ADD12C,0.2000*%
D10*
X538592Y410183D02*
G03*
X511791Y410183I-13400J-6249D01*
G01*
X512085Y396582D02*
G03*
X538885Y396582I13400J6249D01*
G01*
X592981Y397372D02*
G03*
X574090Y385568I2656J-25268D01*
G01*
X598279Y346848D02*
G03*
X617170Y358652I-2656J25268D01*
G01*
Y385568D02*
G03*
X598279Y397372I-21546J-13464D01*
G01*
X574090Y358652D02*
G03*
X592981Y346848I21546J13464D01*
G01*
X443150Y340360D02*
X454950D01*
X522950D02*
X534750D01*
X454950Y327360D02*
X522950D01*
X454950D02*
Y340360D01*
Y353360D01*
X522950D01*
Y340360D02*
Y353360D01*
Y327360D02*
Y340360D01*
X446982Y383240D02*
Y396240D01*
Y409240D01*
X378982D02*
X446982D01*
X378982Y396240D02*
Y409240D01*
Y383240D02*
Y396240D01*
Y383240D02*
X446982D01*
Y396240D02*
X458782D01*
X367182D02*
X378982D01*
X617080Y358510D02*
Y385710D01*
Y358506D02*
Y358510D01*
X574180D02*
Y385710D01*
Y385714D01*
D11*
X274916Y310688D02*
X660730D01*
X274916Y431726D02*
X660730D01*
Y310688D02*
Y431726D01*
X274916Y310688D02*
Y431726D01*
X480541Y362092D02*
Y372249D01*
X485620D01*
X487312Y370556D01*
Y367170D01*
X485620Y365477D01*
X480541D01*
X483927D02*
X487312Y362092D01*
X497469D02*
X490698D01*
X497469Y368863D01*
Y370556D01*
X495776Y372249D01*
X492391D01*
X490698Y370556D01*
X486718Y426691D02*
Y416535D01*
X491797D01*
X493490Y418228D01*
Y424999D01*
X491797Y426691D01*
X486718D01*
X496875Y416535D02*
X500261D01*
X498568D01*
Y426691D01*
X496875Y424999D01*
X404515Y365760D02*
Y375916D01*
X409594D01*
X411287Y374224D01*
Y370838D01*
X409594Y369145D01*
X404515D01*
X407901D02*
X411287Y365760D01*
X414672Y374224D02*
X416365Y375916D01*
X419751D01*
X421443Y374224D01*
Y372531D01*
X419751Y370838D01*
X418058D01*
X419751D01*
X421443Y369145D01*
Y367453D01*
X419751Y365760D01*
X416365D01*
X414672Y367453D01*
X343289Y424600D02*
X339904D01*
X341596D01*
Y416136D01*
X339904Y414443D01*
X338211D01*
X336518Y416136D01*
X346675Y414443D02*
X350060D01*
X348368D01*
Y424600D01*
X346675Y422907D01*
X591989Y325041D02*
X590719Y326311D01*
X588180D01*
X586911Y325041D01*
Y323771D01*
X588180Y322502D01*
X590719D01*
X591989Y321232D01*
Y319963D01*
X590719Y318693D01*
X588180D01*
X586911Y319963D01*
X599606Y326311D02*
X594528D01*
Y318693D01*
X599606D01*
X594528Y322502D02*
X597067D01*
X602146Y318693D02*
Y326311D01*
X607224Y318693D01*
Y326311D01*
X614841Y325041D02*
X613572Y326311D01*
X611033D01*
X609763Y325041D01*
Y323771D01*
X611033Y322502D01*
X613572D01*
X614841Y321232D01*
Y319963D01*
X613572Y318693D01*
X611033D01*
X609763Y319963D01*
X621189Y326311D02*
X618650D01*
X617381Y325041D01*
Y319963D01*
X618650Y318693D01*
X621189D01*
X622459Y319963D01*
Y325041D01*
X621189Y326311D01*
X624998Y318693D02*
Y326311D01*
X628807D01*
X630077Y325041D01*
Y322502D01*
X628807Y321232D01*
X624998D01*
X627537D02*
X630077Y318693D01*
X577317Y339046D02*
X576048Y340315D01*
X573508D01*
X572239Y339046D01*
Y337776D01*
X573508Y336507D01*
X576048D01*
X577317Y335237D01*
Y333967D01*
X576048Y332698D01*
X573508D01*
X572239Y333967D01*
X579856Y332698D02*
X582396D01*
X581126D01*
Y340315D01*
X579856D01*
X586204Y332698D02*
X588744D01*
X587474D01*
Y337776D01*
X586204D01*
X592552Y332698D02*
Y337776D01*
X593822D01*
X595092Y336507D01*
Y332698D01*
Y336507D01*
X596361Y337776D01*
X597631Y336507D01*
Y332698D01*
X607787Y340315D02*
Y332698D01*
X611596D01*
X612866Y333967D01*
Y335237D01*
X611596Y336507D01*
X607787D01*
X611596D01*
X612866Y337776D01*
Y339046D01*
X611596Y340315D01*
X607787D01*
X615405Y332698D02*
Y333967D01*
X616675D01*
Y332698D01*
X615405D01*
X629370Y340315D02*
Y332698D01*
X634449D01*
X636988Y340315D02*
Y332698D01*
X640797D01*
X642066Y333967D01*
Y339046D01*
X640797Y340315D01*
X636988D01*
X644605Y332698D02*
Y340315D01*
X648414D01*
X649684Y339046D01*
Y336507D01*
X648414Y335237D01*
X644605D01*
X647145D02*
X649684Y332698D01*
X295908Y349252D02*
X297178Y350521D01*
Y353060D01*
X295908Y354330D01*
X290830D01*
X289560Y353060D01*
Y350521D01*
X290830Y349252D01*
X293369D01*
Y351791D01*
X289560Y346712D02*
X297178D01*
X289560Y341634D01*
X297178D01*
Y339095D02*
X289560D01*
Y335286D01*
X290830Y334017D01*
X295908D01*
X297178Y335286D01*
Y339095D01*
X289560Y375920D02*
X294638D01*
X297178Y373381D01*
X294638Y370842D01*
X289560D01*
X293369D01*
Y375920D01*
X295908Y368302D02*
X297178Y367033D01*
Y364494D01*
X295908Y363224D01*
X290830D01*
X289560Y364494D01*
Y367033D01*
X290830Y368302D01*
X295908D01*
X298447Y407670D02*
X293369D01*
X290830Y405131D01*
X293369Y402592D01*
X298447D01*
X297178Y394974D02*
X298447Y396244D01*
Y398783D01*
X297178Y400052D01*
X292100D01*
X290830Y398783D01*
Y396244D01*
X292100Y394974D01*
X297178Y387357D02*
X298447Y388626D01*
Y391165D01*
X297178Y392435D01*
X292100D01*
X290830Y391165D01*
Y388626D01*
X292100Y387357D01*
X605849Y407906D02*
Y418063D01*
X610928D01*
X612621Y416370D01*
Y412984D01*
X610928Y411292D01*
X605849D01*
X609235D02*
X612621Y407906D01*
X616006D02*
X619392D01*
X617699D01*
Y418063D01*
X616006Y416370D01*
D12*
X306370Y332740D02*
Y408940D01*
X331170D01*
Y332740D02*
Y408940D01*
X306370Y332740D02*
X331170D01*
M02*
