G04*
G04 #@! TF.GenerationSoftware,Altium Limited,Altium Designer,24.5.2 (23)*
G04*
G04 Layer_Physical_Order=1*
G04 Layer_Color=255*
%FSLAX44Y44*%
%MOMM*%
G71*
G04*
G04 #@! TF.SameCoordinates,CE734AAA-DB41-45B9-A004-A7ED2BCF85BB*
G04*
G04*
G04 #@! TF.FilePolarity,Positive*
G04*
G01*
G75*
%ADD11C,0.2540*%
%ADD19C,1.2000*%
%ADD20R,1.2080X1.2080*%
%ADD21C,1.2080*%
%ADD22C,1.5300*%
%ADD23R,1.5300X1.5300*%
%ADD24C,1.1080*%
D11*
X434785Y341975D02*
Y376800D01*
X565580D01*
Y355110D02*
Y376800D01*
Y355110D02*
X595630D01*
X595390Y389350D02*
Y403483D01*
X537938D02*
X595390D01*
X494325Y402240D02*
X511296D01*
X494325Y396240D02*
Y402240D01*
X467982Y396240D02*
X494325D01*
X318770Y345440D02*
X354960D01*
Y318154D02*
Y345440D01*
Y318154D02*
X543560D01*
Y339970D01*
X387692Y340750D02*
X433560D01*
X387302Y340360D02*
X387692Y340750D01*
X387302Y340360D02*
Y370840D01*
X318770D02*
X387302D01*
X318770Y396240D02*
X357832D01*
X543560Y339970D02*
X543950Y340360D01*
X433950D02*
X434340Y340750D01*
D19*
X433950Y340360D02*
D03*
X543950D02*
D03*
X467982Y396240D02*
D03*
X357982D02*
D03*
D20*
X512538Y403483D02*
D03*
D21*
X537938D02*
D03*
D22*
X318770Y345440D02*
D03*
Y370840D02*
D03*
D23*
Y396240D02*
D03*
D24*
X595630Y389110D02*
D03*
Y355110D02*
D03*
M02*
